<?xml version="1.0" standalone="no"?>
<!DOCTYPE svg PUBLIC "-//W3C//DTD SVG 20010904//EN"
 "http://www.w3.org/TR/2001/REC-SVG-20010904/DTD/svg10.dtd">
<svg version="1.0" xmlns="http://www.w3.org/2000/svg"
 width="1104.000000pt" height="1104.000000pt" viewBox="0 0 1104.000000 1104.000000"
 preserveAspectRatio="xMidYMid meet">

<g transform="translate(0.000000,1104.000000) scale(0.100000,-0.100000)"
fill="#ffffff" stroke="none">
<path d="M7851 9737 c-6 -8 -17 -30 -26 -50 -17 -41 -19 -38 58 -74 71 -33 83
-31 107 24 20 46 19 88 -3 80 -7 -2 -30 4 -52 14 -48 22 -69 23 -84 6z"/>
<path d="M8530 9588 c-16 -29 -30 -58 -30 -65 0 -21 51 -52 119 -74 36 -11 71
-23 78 -25 12 -5 73 111 73 139 0 8 -17 23 -37 32 -34 17 -133 44 -160 45 -7
0 -26 -24 -43 -52z"/>
<path d="M8071 9424 c-12 -19 -21 -41 -21 -48 0 -41 -43 -39 -160 8 l-65 27
-22 -26 c-13 -14 -25 -38 -29 -53 -3 -15 -13 -43 -22 -62 -17 -36 -21 -52 -12
-48 3 1 19 -6 35 -15 17 -10 59 -26 95 -36 36 -10 79 -25 97 -32 18 -7 35 -10
39 -7 3 4 16 35 29 70 20 56 26 63 52 66 15 2 54 -8 86 -22 l57 -26 14 23 c7
12 19 39 26 59 6 21 16 40 21 43 29 19 -29 61 -102 75 -29 6 -60 17 -69 25
-23 21 -25 20 -49 -21z"/>
<path d="M8293 9278 l-48 -92 -95 -24 c-52 -13 -96 -25 -98 -26 -1 -2 2 -16 9
-32 6 -16 26 -71 44 -121 l34 -93 -41 21 c-22 11 -66 27 -97 35 -68 18 -99 8
-107 -36 -11 -53 -23 -54 -134 -15 -56 19 -104 35 -106 35 -8 0 -66 -125 -74
-158 -7 -27 -5 -34 8 -39 10 -3 31 -11 47 -18 47 -20 98 -37 119 -39 33 -4 30
-22 -18 -112 -25 -47 -46 -97 -46 -110 0 -19 -5 -24 -24 -24 -14 0 -27 4 -30
9 -6 10 -103 45 -168 61 -26 7 -49 18 -52 25 -2 7 7 36 20 65 37 80 27 96 -96
136 -45 15 -70 19 -83 13 -19 -11 -44 -61 -63 -129 -11 -39 -11 -47 4 -57 21
-17 118 -53 141 -53 44 0 44 -35 -1 -110 -42 -71 -45 -94 -11 -109 44 -21 172
-61 192 -61 10 0 24 -7 32 -16 12 -15 -2 -54 -63 -168 -20 -37 -36 -93 -30
-102 10 -15 100 -59 159 -78 29 -10 55 -22 58 -27 4 -5 -11 -37 -31 -72 -21
-34 -44 -72 -51 -84 -18 -30 -46 -29 -139 2 -101 34 -174 72 -174 91 0 8 10
33 22 54 15 26 20 42 13 49 -6 5 -93 37 -195 71 -102 34 -191 66 -197 72 -9 7
-14 5 -19 -8 -3 -11 -21 -53 -40 -94 -19 -42 -34 -81 -34 -86 0 -6 -9 -19 -19
-28 -20 -18 -81 -138 -81 -159 0 -7 -7 -25 -16 -42 -9 -16 -31 -66 -50 -109
-18 -44 -46 -98 -61 -120 -37 -56 -129 -245 -138 -284 -3 -18 -11 -35 -17 -38
-10 -6 -185 -359 -328 -659 -26 -55 -105 -219 -175 -365 -70 -146 -156 -323
-190 -395 -34 -71 -118 -245 -185 -385 -280 -582 -298 -621 -368 -815 -361
-987 -374 -2044 -38 -3031 67 -198 89 -254 97 -254 5 0 539 980 1279 2350 64
118 207 382 317 585 110 204 257 480 327 615 69 135 133 256 140 270 8 14 45
84 81 155 37 72 71 135 75 140 4 6 33 60 65 120 31 61 77 146 100 190 24 44
77 145 118 225 41 80 106 201 144 270 68 121 78 140 120 225 11 22 43 80 71
129 29 49 52 97 52 106 0 9 9 25 20 35 11 10 20 23 20 30 0 11 19 50 81 160
15 28 42 77 60 110 17 33 42 74 55 91 13 17 24 37 24 44 0 7 15 33 33 59 19
25 44 72 56 103 13 31 31 64 41 73 10 9 26 37 35 63 10 26 27 60 38 75 10 16
18 29 16 30 -11 7 -124 52 -189 77 -41 15 -123 46 -182 69 -59 22 -116 41
-126 41 -19 0 -53 -33 -77 -74 -9 -16 -16 -15 -90 10 -120 40 -125 42 -125 61
0 9 10 33 23 52 12 20 27 45 33 56 14 25 63 26 117 2 37 -17 38 -17 61 6 12
12 46 72 75 132 69 144 69 143 74 196 4 46 4 47 -33 58 -21 6 -46 11 -56 11
-11 0 -39 11 -63 25 -23 14 -53 25 -65 25 -11 0 -28 5 -36 10 -12 7 3 27 72
98 70 71 90 86 100 76 7 -6 51 -24 98 -39 47 -15 88 -30 92 -34 4 -3 -7 -39
-24 -80 -35 -83 -32 -100 21 -114 31 -8 32 -10 29 -49 l-3 -42 55 -16 c71 -21
106 -40 92 -49 -7 -4 -18 -25 -26 -46 -15 -45 -24 -47 -95 -20 -24 9 -58 15
-75 13 -25 -2 -31 -8 -37 -34 -3 -18 -18 -53 -33 -79 -31 -56 -33 -75 -8 -75
10 0 22 -4 27 -8 6 -5 43 -19 82 -32 85 -26 90 -24 122 49 34 79 29 78 164 31
32 -11 65 -20 73 -20 17 0 78 125 71 144 -3 6 -27 19 -53 28 -128 44 -129 44
-127 78 0 17 12 48 25 68 14 20 30 54 37 75 15 45 42 63 73 46 33 -17 161 -58
169 -53 14 8 61 134 56 148 -3 8 -32 22 -64 31 -32 10 -73 23 -90 31 -41 17
-59 10 -73 -29 -25 -74 -44 -107 -62 -107 -10 0 -41 11 -70 25 -29 13 -80 32
-113 42 -56 17 -60 20 -57 46 2 15 12 42 22 60 11 18 20 40 20 49 0 19 -58 48
-160 80 -36 11 -72 23 -80 27 -16 9 -82 112 -75 119 2 3 83 -23 179 -57 96
-33 177 -61 180 -61 4 0 -19 34 -49 75 -63 85 -57 94 37 50 29 -14 68 -28 86
-31 17 -3 32 -10 32 -15 0 -5 -14 -37 -31 -71 -29 -58 -30 -62 -12 -72 29 -17
153 -66 167 -66 16 0 49 36 68 75 8 17 22 45 31 62 15 32 15 33 -10 53 -14 11
-34 20 -45 20 -15 0 -72 23 -86 35 -2 1 17 40 42 86 42 81 45 84 78 83 19 -1
61 -13 93 -27 31 -15 66 -27 75 -27 18 0 80 98 80 125 0 28 -52 58 -141 81
-135 34 -132 35 -160 -38 -19 -48 -30 -64 -47 -66 -12 -2 -71 16 -132 39 -124
48 -127 53 -84 126 39 67 37 68 -104 114 l-74 24 -29 -35 c-32 -39 -54 -94
-45 -115 3 -8 17 -15 31 -15 21 0 97 -31 114 -46 3 -3 -68 -154 -73 -154 -2 0
-20 25 -40 55 -33 47 -116 248 -116 280 0 6 33 19 73 29 82 19 70 6 142 162
l33 71 -34 16 -33 16 -48 -91z m-140 -426 c3 -15 34 -68 69 -117 35 -50 67
-95 71 -101 3 -6 -69 15 -160 48 -91 32 -168 56 -170 54 -3 -2 7 -23 22 -46
15 -23 25 -44 23 -46 -3 -2 -36 5 -74 17 -38 11 -79 23 -92 26 -34 8 -37 26
-11 78 16 32 28 45 39 41 8 -2 57 -16 109 -31 106 -29 97 -32 133 52 13 29 26
53 29 53 4 0 9 -12 12 -28z m-76 -452 c-29 -31 -54 -55 -56 -53 -2 1 13 37 33
80 l37 78 19 -25 19 -25 -52 -55z m-215 -31 c46 -16 94 -37 107 -46 l23 -15
-46 -47 -46 -47 22 -21 22 -22 -40 6 c-21 3 -66 16 -99 30 -33 14 -73 28 -90
32 -40 9 -42 29 -5 100 21 43 36 61 49 61 11 0 57 -14 103 -31z m-883 -613
c42 -22 54 -41 42 -65 -16 -29 -46 -35 -81 -14 -34 20 -37 33 -14 68 19 29 17
29 53 11z m265 -24 l73 -38 -22 -40 c-27 -47 -48 -49 -133 -7 -47 23 -58 33
-60 57 -4 32 22 66 49 66 10 0 52 -17 93 -38z m569 -176 c22 -21 25 -29 17
-48 -6 -13 -13 -31 -17 -41 -6 -20 -22 -19 -87 8 -44 19 -52 35 -36 75 11 27
17 30 55 30 31 0 49 -7 68 -24z m-845 -17 c59 -24 71 -48 45 -83 -26 -35 -37
-38 -90 -18 -62 23 -73 42 -49 87 22 41 27 42 94 14z m645 -96 c37 -18 42 -35
23 -71 -21 -40 -38 -44 -102 -24 -53 16 -55 18 -49 47 3 16 15 39 27 52 23 24
47 23 101 -4z m-318 -17 c16 -12 18 -19 10 -42 -12 -33 -35 -41 -75 -24 -36
15 -43 32 -24 59 18 24 61 28 89 7z m1042 -27 c24 -11 43 -26 43 -33 0 -6 -13
-27 -28 -45 -28 -34 -28 -34 -59 -17 -42 21 -69 20 -100 -4 -26 -20 -48 -20
-105 2 -20 7 -28 18 -28 33 0 42 26 57 93 54 48 -2 63 1 71 14 15 23 61 21
113 -4z m-383 -99 c28 -10 34 -37 16 -70 -8 -15 -15 -17 -41 -10 -58 17 -79
57 -41 79 22 13 34 13 66 1z m-818 -36 c39 -19 41 -27 14 -72 -27 -44 -39 -47
-91 -20 -39 21 -44 28 -42 56 3 65 37 75 119 36z m519 -34 c3 -5 16 -10 29
-10 13 0 31 -9 41 -20 24 -26 11 -68 -27 -89 -24 -14 -31 -13 -75 5 -44 18
-48 23 -45 50 2 16 10 39 18 52 15 23 48 30 59 12z m565 -164 c42 -13 45 -16
43 -46 -1 -18 -10 -41 -20 -51 -17 -16 -22 -16 -80 -2 -35 9 -63 20 -63 25 0
5 9 27 20 48 22 44 32 47 100 26z m-456 -112 c17 -6 21 -41 8 -60 -16 -25 -50
-25 -77 -1 -24 20 -26 26 -16 45 12 22 50 29 85 16z m-516 -92 c29 -10 55 -22
59 -25 8 -9 -39 -97 -52 -97 -17 0 -115 55 -115 64 0 8 48 76 53 76 2 0 26 -8
55 -18z"/>
<path d="M2640 9330 c-14 -11 -39 -22 -57 -26 -18 -3 -37 -12 -44 -20 -16 -19
-3 -61 27 -91 l24 -24 33 19 c17 11 43 22 57 26 49 12 52 19 32 67 -27 63 -41
72 -72 49z"/>
<path d="M9020 9288 c-37 -65 -36 -100 2 -105 15 -2 51 -15 80 -28 29 -14 62
-25 73 -25 23 0 47 35 70 99 13 38 13 42 -5 51 -31 17 -156 60 -174 60 -8 0
-29 -23 -46 -52z"/>
<path d="M8566 9268 c-17 -26 -46 -103 -46 -123 0 -20 166 -82 193 -72 15 6
77 112 77 133 0 6 -10 14 -22 17 -21 5 -126 43 -170 62 -11 4 -21 -1 -32 -17z"/>
<path d="M2014 9121 c-40 -14 -82 -33 -95 -42 l-24 -16 34 -72 c19 -39 37 -71
40 -71 3 0 33 11 66 25 33 13 69 25 81 25 11 0 29 9 39 20 18 20 18 22 -15 90
-19 39 -39 69 -44 69 -6 -1 -43 -13 -82 -28z"/>
<path d="M2515 8934 c-22 -9 -65 -23 -95 -32 -30 -8 -57 -17 -59 -18 -6 -5 49
-117 67 -137 17 -19 32 -17 104 15 45 20 49 20 66 5 11 -10 25 -35 32 -57 19
-57 46 -83 71 -69 11 6 46 17 77 25 31 8 61 18 66 23 6 4 30 13 54 21 23 7 42
15 42 17 0 9 -90 182 -97 186 -4 2 -48 -11 -98 -29 -49 -19 -96 -34 -103 -34
-7 0 -23 22 -35 50 -24 54 -32 57 -92 34z"/>
<path d="M2198 8868 c-16 -5 -28 -13 -28 -16 0 -4 24 -54 53 -112 l52 -105 68
-17 c38 -9 71 -18 73 -21 2 -2 -14 -55 -36 -118 -37 -103 -52 -129 -175 -301
-74 -104 -135 -191 -135 -193 0 -2 15 2 33 9 64 27 329 117 332 114 2 -2 -17
-36 -41 -77 l-45 -73 122 -127 c68 -69 129 -133 136 -141 11 -12 17 -10 43 15
l30 29 -116 117 -117 117 82 136 c45 75 92 141 104 148 12 7 57 26 100 44 l78
32 13 -22 c15 -24 40 -96 34 -100 -12 -11 -104 -46 -120 -46 -11 0 -50 -13
-86 -29 -37 -15 -75 -31 -85 -35 -18 -6 -18 -8 2 -40 12 -18 21 -44 21 -58 0
-13 11 -39 25 -58 14 -19 25 -39 25 -46 0 -6 9 -23 20 -37 17 -22 24 -24 52
-16 49 12 160 50 185 61 30 14 53 3 53 -25 0 -13 11 -33 25 -45 14 -12 25 -33
25 -46 0 -20 -9 -29 -46 -45 -25 -11 -48 -20 -52 -19 -4 1 -25 -7 -47 -19 -49
-25 -273 -105 -300 -108 -98 -8 -123 -79 -60 -170 14 -21 25 -47 25 -57 0 -25
81 -176 97 -182 13 -5 80 15 120 36 26 13 48 0 59 -35 4 -12 18 -39 32 -60 16
-24 22 -41 16 -47 -6 -6 -48 -28 -94 -51 -70 -33 -88 -39 -107 -30 -13 6 -23
15 -23 21 0 5 -7 10 -15 10 -8 0 -15 7 -15 15 0 28 -80 49 -95 25 -3 -5 -14
-10 -24 -10 -10 0 -39 -11 -65 -25 -26 -14 -56 -25 -66 -25 -11 0 -36 -11 -56
-25 -20 -14 -42 -25 -48 -25 -6 0 -33 -12 -61 -25 -27 -14 -60 -25 -72 -25
-39 0 -30 -33 43 -160 39 -69 175 -307 301 -530 224 -393 413 -725 928 -1630
404 -710 608 -1071 855 -1512 128 -230 234 -417 235 -415 2 1 -3 47 -11 102
-50 385 -36 869 36 1275 69 384 216 790 391 1078 21 35 39 67 39 72 0 13 -211
443 -679 1384 l-462 926 -34 0 c-49 0 -122 -19 -175 -45 -25 -13 -60 -26 -79
-30 -18 -4 -53 -16 -76 -26 -50 -22 -56 -48 -22 -86 18 -20 19 -26 7 -48 -30
-57 24 -51 106 11 l31 23 20 -22 c59 -68 54 -81 -57 -127 l-82 -33 -19 24
c-10 13 -24 39 -31 57 -14 36 -24 39 -57 16 -13 -9 -41 -18 -63 -20 -22 -2
-55 -13 -73 -24 -18 -11 -39 -20 -47 -20 -25 0 -118 154 -118 196 0 8 58 32
91 38 21 4 42 13 49 21 7 8 21 15 32 15 24 0 58 18 58 30 0 5 -30 63 -66 130
-36 66 -63 124 -60 128 3 5 54 25 113 46 148 50 140 42 119 118 -10 34 -26 75
-37 90 -25 35 -24 48 4 48 12 0 42 9 66 20 24 11 53 20 65 20 51 0 61 55 21
110 -14 19 -25 39 -25 45 0 17 -34 45 -53 45 -23 0 -159 -48 -171 -60 -6 -6 1
-36 17 -81 25 -68 26 -73 9 -85 -9 -7 -23 -14 -30 -14 -19 0 -165 -51 -177
-62 -24 -22 -43 -6 -74 62 -17 39 -31 76 -31 84 0 7 -10 25 -21 40 -12 15 -20
29 -18 30 11 10 138 56 155 56 10 0 27 12 37 25 18 25 18 26 -26 103 -42 74
-45 77 -78 74 -18 -1 -58 -14 -88 -27 -63 -30 -99 -32 -107 -7 -3 9 -14 33
-24 52 -16 29 -24 34 -47 31 -15 -1 -46 -12 -68 -24 -22 -11 -53 -23 -70 -27
-40 -8 -43 -37 -11 -93 44 -75 58 -64 -186 -151 -54 -19 -98 -33 -98 -31 0 3
29 44 64 92 54 74 73 112 120 242 31 85 56 160 56 167 0 7 -39 21 -96 35 l-96
23 -44 88 c-24 48 -48 88 -52 87 -4 0 -19 -5 -34 -11z m1566 -1614 c17 -43 -8
-74 -59 -74 -20 0 -47 44 -39 63 10 28 88 37 98 11z m-775 -190 c12 -15 21
-32 21 -39 0 -12 -92 -65 -113 -65 -12 0 -47 61 -47 80 0 13 70 49 97 50 12 0
31 -12 42 -26z m851 -70 c0 -12 -43 -34 -67 -34 -9 0 -25 -8 -36 -17 -18 -17
-20 -17 -43 12 -39 49 -32 72 29 99 l52 23 32 -36 c18 -20 32 -41 33 -47z
m-656 -53 c37 -39 30 -55 -39 -86 l-56 -25 -24 28 c-32 36 -34 82 -2 82 12 1
33 7 47 15 35 20 43 19 74 -14z m296 -6 c16 -19 8 -40 -24 -61 -37 -23 -76
-12 -76 23 0 14 8 32 18 39 23 18 67 17 82 -1z m-1015 -25 c20 -22 55 -26 85
-10 25 14 41 6 67 -35 l22 -34 -34 -21 c-19 -12 -50 -24 -69 -27 -32 -5 -37
-3 -48 23 -6 16 -13 30 -13 31 -1 2 -19 -6 -40 -17 -58 -30 -78 -26 -110 20
-15 22 -26 43 -23 45 8 8 111 43 129 44 9 1 24 -8 34 -19z m345 -147 c0 -29
-38 -48 -75 -39 -22 6 -26 11 -23 39 2 27 9 34 38 44 30 10 37 9 48 -5 6 -9
12 -26 12 -39z m836 29 c13 -9 49 -70 43 -74 -17 -12 -102 -48 -112 -48 -16 0
-47 51 -47 77 0 26 92 62 116 45z m-557 -78 c29 -37 27 -62 -6 -74 -16 -6 -40
-17 -55 -25 -27 -15 -28 -15 -53 24 -14 23 -25 45 -25 50 0 9 85 49 107 50 6
1 21 -11 32 -25z m-524 -160 c14 -15 25 -33 25 -40 0 -18 -28 -44 -48 -44 -9
0 -26 -7 -36 -15 -11 -8 -23 -15 -27 -15 -11 0 -60 81 -56 93 3 9 85 44 110
46 4 1 19 -11 32 -25z m449 -106 c23 -32 21 -34 -29 -53 -36 -14 -48 -15 -60
-5 -25 21 -18 55 13 67 42 17 60 15 76 -9z m517 -90 c16 -18 29 -35 29 -39 0
-14 -35 -34 -77 -45 -41 -10 -45 -10 -63 14 -33 41 -26 66 23 84 56 22 54 22
88 -14z"/>
<path d="M1585 8830 c-3 -5 -12 -7 -19 -4 -8 3 -17 1 -21 -5 -3 -6 -14 -11
-24 -11 -27 0 -111 -39 -111 -52 0 -6 14 -39 32 -75 30 -62 32 -64 62 -57 17
3 58 17 92 30 33 13 66 24 72 24 14 0 16 22 3 36 -4 5 -17 32 -27 59 -22 60
-43 80 -59 55z"/>
<path d="M1983 8751 c-40 -15 -78 -32 -83 -37 -27 -27 26 -154 64 -154 7 0 31
9 54 20 22 11 48 20 57 20 14 0 37 13 83 46 2 1 -8 19 -22 41 -13 21 -28 50
-31 66 -9 34 -27 34 -122 -2z"/>
<path d="M2225 8601 c-3 -6 -16 -11 -28 -11 -12 0 -44 -12 -72 -25 -27 -14
-55 -25 -61 -25 -6 0 -19 -9 -28 -19 -16 -18 -15 -22 18 -74 l36 -56 -26 -20
c-15 -12 -36 -21 -47 -21 -11 0 -39 -9 -61 -19 -23 -11 -60 -26 -83 -34 -41
-14 -43 -14 -67 12 -13 14 -32 45 -41 68 -9 23 -24 45 -33 48 -10 2 -39 -6
-66 -20 -27 -14 -59 -25 -70 -25 -12 0 -32 -9 -45 -19 l-24 -18 28 -51 c40
-74 58 -88 93 -72 15 7 55 20 90 30 61 17 63 17 87 -2 14 -11 25 -27 25 -36 0
-9 16 -49 37 -90 21 -42 32 -76 27 -81 -14 -12 -162 -71 -178 -71 -15 0 -9
-20 28 -102 14 -33 21 -38 49 -38 18 0 43 7 55 16 12 8 32 17 45 18 12 1 32 8
45 15 34 18 60 5 72 -37 5 -20 20 -50 33 -66 l24 -29 87 34 c49 19 91 40 94
48 3 7 -5 33 -17 57 -11 25 -21 53 -21 64 0 37 -47 44 -139 21 -53 -14 -55
-13 -70 9 -24 35 -41 79 -33 83 4 3 32 12 62 22 90 29 93 31 74 60 -20 31 -8
50 48 72 44 17 44 21 1 110 -14 29 -23 59 -20 67 3 7 22 17 42 20 21 4 56 16
79 26 22 10 49 21 58 24 19 6 15 32 -18 101 -16 33 -25 41 -51 43 -17 2 -34
-2 -38 -7z"/>
<path d="M7070 8228 c-36 -72 -40 -95 -21 -112 9 -9 52 -27 95 -41 87 -28 91
-27 127 31 12 20 19 46 17 65 -3 27 -9 34 -53 51 -27 11 -63 24 -80 28 -16 4
-38 11 -47 15 -13 5 -22 -3 -38 -37z"/>
<path d="M2325 7810 c-92 -30 -100 -43 -66 -113 12 -24 21 -53 21 -65 0 -25
-45 -52 -87 -52 -15 0 -54 -14 -86 -31 -32 -17 -64 -28 -70 -26 -7 3 -27 34
-45 70 -35 69 -55 82 -93 61 -13 -7 -33 -13 -43 -14 -27 0 -138 -41 -155 -56
-12 -11 -9 -23 15 -78 15 -36 34 -68 42 -71 15 -6 144 38 179 61 21 13 24 12
53 -27 16 -23 30 -47 30 -52 0 -6 10 -30 21 -54 12 -24 18 -47 14 -51 -3 -4
-36 -16 -73 -28 -80 -24 -80 -29 -26 -141 23 -49 40 -73 52 -73 9 1 53 13 97
28 92 32 100 46 66 122 -26 58 -15 76 59 100 30 10 75 27 100 39 25 11 54 21
66 21 24 0 54 29 54 53 0 10 -21 56 -46 102 -52 97 -51 106 19 123 23 6 51 17
61 25 18 13 18 18 6 61 -15 56 -45 97 -68 95 -9 -1 -53 -14 -97 -29z"/>
<path d="M3535 7760 c-11 -5 -46 -19 -77 -31 -54 -19 -58 -23 -58 -53 0 -17 5
-37 11 -43 6 -6 17 -22 23 -35 15 -31 58 -35 100 -9 19 12 40 19 47 16 8 -2
25 4 38 14 29 23 25 48 -19 109 -34 45 -35 45 -65 32z"/>
</g>
</svg>

